<svg xmlns="http://www.w3.org/2000/svg" xmlns:xlink="http://www.w3.org/1999/xlink" width="500" zoomAndPan="magnify" viewBox="0 0 375 374.999991" height="500" preserveAspectRatio="xMidYMid meet" version="1.0"><defs><g/><clipPath id="a9fba054dc"><path d="M 202.226562 144.632812 L 229.976562 144.632812 L 229.976562 168.632812 L 202.226562 168.632812 Z M 202.226562 144.632812 " clip-rule="nonzero"/></clipPath></defs><g fill="#efebec" fill-opacity="1"><g transform="translate(55.094429, 197.186017)"><g><path d="M 9.015625 -22.296875 L 0.171875 -22.296875 L 0.171875 -30.1875 L 28.03125 -30.1875 L 28.03125 -22.296875 L 19.1875 -22.296875 L 19.1875 0 L 9.015625 0 Z M 9.015625 -22.296875 "/></g></g></g><g fill="#efebec" fill-opacity="1"><g transform="translate(85.325669, 197.186017)"><g><path d="M 15.390625 -7.59375 L 12.640625 -7.59375 L 12.640625 0 L 2.453125 0 L 2.453125 -30.1875 L 16.984375 -30.1875 C 19.773438 -30.1875 22.207031 -29.722656 24.28125 -28.796875 C 26.351562 -27.878906 27.945312 -26.554688 29.0625 -24.828125 C 30.1875 -23.109375 30.75 -21.097656 30.75 -18.796875 C 30.75 -16.640625 30.257812 -14.753906 29.28125 -13.140625 C 28.300781 -11.535156 26.894531 -10.257812 25.0625 -9.3125 L 31.390625 0 L 20.53125 0 Z M 20.484375 -18.796875 C 20.484375 -19.921875 20.140625 -20.789062 19.453125 -21.40625 C 18.765625 -22.03125 17.726562 -22.34375 16.34375 -22.34375 L 12.640625 -22.34375 L 12.640625 -15.265625 L 16.34375 -15.265625 C 17.726562 -15.265625 18.765625 -15.570312 19.453125 -16.1875 C 20.140625 -16.8125 20.484375 -17.679688 20.484375 -18.796875 Z M 20.484375 -18.796875 "/></g></g></g><g fill="#efebec" fill-opacity="1"><g transform="translate(119.481283, 197.186017)"><g><path d="M 27.5625 -7.671875 L 27.5625 0 L 2.453125 0 L 2.453125 -30.1875 L 27 -30.1875 L 27 -22.515625 L 12.46875 -22.515625 L 12.46875 -18.96875 L 25.234375 -18.96875 L 25.234375 -11.640625 L 12.46875 -11.640625 L 12.46875 -7.671875 Z M 27.5625 -7.671875 "/></g></g></g><g fill="#efebec" fill-opacity="1"><g transform="translate(150.5319, 197.186017)"><g><path d="M 32.21875 -30.1875 L 32.21875 0 L 23.84375 0 L 12.375 -13.71875 L 12.375 0 L 2.453125 0 L 2.453125 -30.1875 L 10.828125 -30.1875 L 22.296875 -16.46875 L 22.296875 -30.1875 Z M 32.21875 -30.1875 "/></g></g></g><g fill="#efebec" fill-opacity="1"><g transform="translate(187.231876, 197.186017)"><g><path d="M 2.453125 -30.1875 L 17.34375 -30.1875 C 20.695312 -30.1875 23.660156 -29.570312 26.234375 -28.34375 C 28.804688 -27.125 30.804688 -25.378906 32.234375 -23.109375 C 33.660156 -20.835938 34.375 -18.164062 34.375 -15.09375 C 34.375 -12.019531 33.660156 -9.347656 32.234375 -7.078125 C 30.804688 -4.804688 28.804688 -3.054688 26.234375 -1.828125 C 23.660156 -0.609375 20.695312 0 17.34375 0 L 2.453125 0 Z M 16.90625 -7.9375 C 19.09375 -7.9375 20.835938 -8.5625 22.140625 -9.8125 C 23.453125 -11.0625 24.109375 -12.820312 24.109375 -15.09375 C 24.109375 -17.363281 23.453125 -19.125 22.140625 -20.375 C 20.835938 -21.625 19.09375 -22.25 16.90625 -22.25 L 12.640625 -22.25 L 12.640625 -7.9375 Z M 16.90625 -7.9375 "/></g></g></g><g fill="#efebec" fill-opacity="1"><g transform="translate(224.880601, 197.186017)"><g><path d="M 2.453125 -30.1875 L 12.640625 -30.1875 L 12.640625 0 L 2.453125 0 Z M 2.453125 -30.1875 "/></g></g></g><g fill="#efebec" fill-opacity="1"><g transform="translate(242.001865, 197.186017)"><g><path d="M 29.40625 0 L 29.328125 -13.75 L 22.765625 -2.71875 L 18.28125 -2.71875 L 11.734375 -13.28125 L 11.734375 0 L 2.453125 0 L 2.453125 -30.1875 L 10.828125 -30.1875 L 20.65625 -14.109375 L 30.234375 -30.1875 L 38.59375 -30.1875 L 38.6875 0 Z M 29.40625 0 "/></g></g></g><g fill="#efebec" fill-opacity="1"><g transform="translate(285.170579, 197.186017)"><g><path d="M 18.28125 0.6875 C 15.03125 0.6875 12.113281 0.015625 9.53125 -1.328125 C 6.945312 -2.679688 4.921875 -4.554688 3.453125 -6.953125 C 1.984375 -9.359375 1.25 -12.070312 1.25 -15.09375 C 1.25 -18.113281 1.984375 -20.820312 3.453125 -23.21875 C 4.921875 -25.625 6.945312 -27.5 9.53125 -28.84375 C 12.113281 -30.195312 15.03125 -30.875 18.28125 -30.875 C 21.53125 -30.875 24.445312 -30.195312 27.03125 -28.84375 C 29.625 -27.5 31.648438 -25.625 33.109375 -23.21875 C 34.578125 -20.820312 35.3125 -18.113281 35.3125 -15.09375 C 35.3125 -12.070312 34.578125 -9.359375 33.109375 -6.953125 C 31.648438 -4.554688 29.625 -2.679688 27.03125 -1.328125 C 24.445312 0.015625 21.53125 0.6875 18.28125 0.6875 Z M 18.28125 -7.546875 C 19.550781 -7.546875 20.695312 -7.851562 21.71875 -8.46875 C 22.738281 -9.09375 23.550781 -9.972656 24.15625 -11.109375 C 24.757812 -12.242188 25.0625 -13.570312 25.0625 -15.09375 C 25.0625 -16.613281 24.757812 -17.941406 24.15625 -19.078125 C 23.550781 -20.210938 22.738281 -21.085938 21.71875 -21.703125 C 20.695312 -22.328125 19.550781 -22.640625 18.28125 -22.640625 C 17.019531 -22.640625 15.878906 -22.328125 14.859375 -21.703125 C 13.835938 -21.085938 13.023438 -20.210938 12.421875 -19.078125 C 11.816406 -17.941406 11.515625 -16.613281 11.515625 -15.09375 C 11.515625 -13.570312 11.816406 -12.242188 12.421875 -11.109375 C 13.023438 -9.972656 13.835938 -9.09375 14.859375 -8.46875 C 15.878906 -7.851562 17.019531 -7.546875 18.28125 -7.546875 Z M 18.28125 -7.546875 "/></g></g></g><g clip-path="url(#a9fba054dc)"><path fill="#e42b57" d="M 228.082031 144.976562 L 202.8125 154.84375 C 202.632812 154.914062 202.488281 155.03125 202.378906 155.199219 C 202.273438 155.363281 202.222656 155.542969 202.230469 155.738281 C 202.238281 155.933594 202.304688 156.109375 202.425781 156.265625 C 202.546875 156.421875 202.699219 156.527344 202.886719 156.582031 L 207.652344 157.976562 C 208.171875 158.128906 208.625 158.394531 209.007812 158.769531 C 209.394531 159.148438 209.667969 159.597656 209.828125 160.109375 L 211.710938 166.070312 C 211.738281 166.160156 211.777344 166.246094 211.828125 166.328125 C 211.878906 166.410156 211.9375 166.484375 212.007812 166.546875 C 212.078125 166.613281 212.15625 166.667969 212.238281 166.714844 C 212.324219 166.757812 212.410156 166.792969 212.503906 166.8125 C 212.597656 166.835938 212.691406 166.847656 212.785156 166.84375 C 212.882812 166.839844 212.976562 166.828125 213.066406 166.800781 C 213.160156 166.773438 213.246094 166.734375 213.328125 166.6875 C 213.410156 166.636719 213.484375 166.578125 213.550781 166.511719 L 216.132812 163.871094 C 216.34375 163.65625 216.601562 163.535156 216.902344 163.507812 C 217.203125 163.484375 217.476562 163.5625 217.71875 163.742188 L 223.386719 167.902344 C 223.480469 167.96875 223.578125 168.019531 223.683594 168.0625 C 223.785156 168.105469 223.894531 168.132812 224.007812 168.148438 C 224.121094 168.160156 224.230469 168.160156 224.34375 168.148438 C 224.457031 168.136719 224.566406 168.109375 224.671875 168.066406 C 224.777344 168.027344 224.875 167.976562 224.964844 167.910156 C 225.058594 167.84375 225.140625 167.769531 225.214844 167.683594 C 225.289062 167.597656 225.351562 167.503906 225.402344 167.402344 C 225.453125 167.304688 225.488281 167.199219 225.511719 167.085938 L 229.824219 146.460938 C 229.875 146.226562 229.863281 145.996094 229.789062 145.769531 C 229.710938 145.542969 229.582031 145.351562 229.398438 145.195312 C 229.21875 145.039062 229.007812 144.941406 228.773438 144.902344 C 228.535156 144.863281 228.308594 144.886719 228.082031 144.976562 Z M 224.941406 149.414062 L 216.414062 156.96875 C 215.914062 157.402344 215.625 157.949219 215.546875 158.605469 C 215.53125 158.742188 215.472656 158.859375 215.375 158.953125 C 215.273438 159.046875 215.15625 159.101562 215.019531 159.117188 C 214.882812 159.128906 214.757812 159.097656 214.644531 159.023438 C 214.53125 158.949219 214.449219 158.84375 214.40625 158.714844 L 214.019531 157.46875 C 213.878906 157.015625 213.890625 156.570312 214.058594 156.128906 C 214.222656 155.6875 214.503906 155.34375 214.90625 155.09375 L 224.65625 149.054688 C 224.773438 149.003906 224.871094 149.03125 224.941406 149.136719 C 225.015625 149.242188 225.011719 149.339844 224.921875 149.433594 Z M 224.941406 149.414062 " fill-opacity="1" fill-rule="nonzero"/></g><g fill="#efebec" fill-opacity="1"><g transform="translate(102.321044, 223.616309)"><g><path d="M 7.46875 -10.03125 C 8.332031 -10.03125 9.125 -9.820312 9.84375 -9.40625 C 10.570312 -8.988281 11.148438 -8.394531 11.578125 -7.625 C 12.003906 -6.851562 12.21875 -5.957031 12.21875 -4.9375 C 12.21875 -3.914062 12.003906 -3.015625 11.578125 -2.234375 C 11.148438 -1.453125 10.570312 -0.851562 9.84375 -0.4375 C 9.125 -0.0195312 8.332031 0.1875 7.46875 0.1875 C 6.257812 0.1875 5.359375 -0.144531 4.765625 -0.8125 L 4.765625 0 L 0.90625 0 L 0.90625 -13.359375 L 4.96875 -13.359375 L 4.96875 -9.1875 C 5.539062 -9.75 6.375 -10.03125 7.46875 -10.03125 Z M 6.5 -2.984375 C 6.96875 -2.984375 7.347656 -3.15625 7.640625 -3.5 C 7.941406 -3.84375 8.09375 -4.320312 8.09375 -4.9375 C 8.09375 -5.539062 7.941406 -6.007812 7.640625 -6.34375 C 7.347656 -6.6875 6.96875 -6.859375 6.5 -6.859375 C 6.03125 -6.859375 5.644531 -6.6875 5.34375 -6.34375 C 5.039062 -6.007812 4.890625 -5.539062 4.890625 -4.9375 C 4.890625 -4.320312 5.039062 -3.84375 5.34375 -3.5 C 5.644531 -3.15625 6.03125 -2.984375 6.5 -2.984375 Z M 6.5 -2.984375 "/></g></g></g><g fill="#efebec" fill-opacity="1"><g transform="translate(115.767011, 223.616309)"><g><path d="M 11.859375 -9.84375 L 7.8125 0.203125 C 7.289062 1.484375 6.644531 2.378906 5.875 2.890625 C 5.113281 3.410156 4.175781 3.671875 3.0625 3.671875 C 2.507812 3.671875 1.953125 3.585938 1.390625 3.421875 C 0.835938 3.265625 0.398438 3.054688 0.078125 2.796875 L 1.421875 0 C 1.628906 0.15625 1.859375 0.28125 2.109375 0.375 C 2.367188 0.46875 2.617188 0.515625 2.859375 0.515625 C 3.304688 0.515625 3.644531 0.382812 3.875 0.125 L -0.265625 -9.84375 L 3.90625 -9.84375 L 5.9375 -4.578125 L 8.015625 -9.84375 Z M 11.859375 -9.84375 "/></g></g></g><g fill="#efebec" fill-opacity="1"><g transform="translate(128.204972, 223.616309)"><g/></g></g><g fill="#efebec" fill-opacity="1"><g transform="translate(134.450959, 223.616309)"><g><path d="M 9.484375 -12.859375 C 11.179688 -12.859375 12.6875 -12.507812 14 -11.8125 C 15.3125 -11.125 16.328125 -10.1875 17.046875 -9 C 17.773438 -7.8125 18.140625 -6.5 18.140625 -5.0625 C 18.140625 -3.957031 17.953125 -3.007812 17.578125 -2.21875 C 17.203125 -1.4375 16.691406 -0.84375 16.046875 -0.4375 C 15.398438 -0.0390625 14.6875 0.15625 13.90625 0.15625 C 13.226562 0.15625 12.648438 0.0234375 12.171875 -0.234375 C 11.691406 -0.492188 11.320312 -0.882812 11.0625 -1.40625 C 10.539062 -0.363281 9.628906 0.15625 8.328125 0.15625 C 7.671875 0.15625 7.050781 -0.0234375 6.46875 -0.390625 C 5.882812 -0.753906 5.410156 -1.273438 5.046875 -1.953125 C 4.691406 -2.640625 4.515625 -3.425781 4.515625 -4.3125 C 4.515625 -5.207031 4.691406 -5.992188 5.046875 -6.671875 C 5.398438 -7.347656 5.867188 -7.867188 6.453125 -8.234375 C 7.035156 -8.597656 7.660156 -8.78125 8.328125 -8.78125 C 9.273438 -8.78125 10.015625 -8.488281 10.546875 -7.90625 L 10.546875 -8.625 L 14 -8.625 L 14 -3.46875 C 14 -2.8125 14.234375 -2.484375 14.703125 -2.484375 C 14.992188 -2.484375 15.21875 -2.664062 15.375 -3.03125 C 15.539062 -3.40625 15.625 -4.0625 15.625 -5 C 15.625 -6.082031 15.367188 -7.039062 14.859375 -7.875 C 14.347656 -8.71875 13.625 -9.375 12.6875 -9.84375 C 11.757812 -10.320312 10.691406 -10.5625 9.484375 -10.5625 C 8.273438 -10.5625 7.203125 -10.300781 6.265625 -9.78125 C 5.328125 -9.257812 4.597656 -8.539062 4.078125 -7.625 C 3.566406 -6.707031 3.3125 -5.679688 3.3125 -4.546875 C 3.3125 -3.390625 3.566406 -2.347656 4.078125 -1.421875 C 4.585938 -0.503906 5.300781 0.207031 6.21875 0.71875 C 7.144531 1.238281 8.207031 1.5 9.40625 1.5 C 10.664062 1.5 11.878906 1.234375 13.046875 0.703125 L 13.8125 2.921875 C 13.269531 3.179688 12.597656 3.390625 11.796875 3.546875 C 11.003906 3.703125 10.207031 3.78125 9.40625 3.78125 C 7.644531 3.78125 6.085938 3.414062 4.734375 2.6875 C 3.390625 1.96875 2.347656 0.972656 1.609375 -0.296875 C 0.878906 -1.566406 0.515625 -2.984375 0.515625 -4.546875 C 0.515625 -6.097656 0.882812 -7.503906 1.625 -8.765625 C 2.363281 -10.023438 3.410156 -11.019531 4.765625 -11.75 C 6.117188 -12.488281 7.691406 -12.859375 9.484375 -12.859375 Z M 9.328125 -2.65625 C 9.710938 -2.65625 10.023438 -2.800781 10.265625 -3.09375 C 10.503906 -3.382812 10.625 -3.789062 10.625 -4.3125 C 10.625 -4.84375 10.503906 -5.25 10.265625 -5.53125 C 10.023438 -5.8125 9.710938 -5.953125 9.328125 -5.953125 C 8.941406 -5.953125 8.628906 -5.8125 8.390625 -5.53125 C 8.160156 -5.25 8.046875 -4.84375 8.046875 -4.3125 C 8.046875 -3.789062 8.160156 -3.382812 8.390625 -3.09375 C 8.628906 -2.800781 8.941406 -2.65625 9.328125 -2.65625 Z M 9.328125 -2.65625 "/></g></g></g><g fill="#efebec" fill-opacity="1"><g transform="translate(153.9629, 223.616309)"><g><path d="M 13.453125 -12.59375 L 13.453125 0 L 9.953125 0 L 5.171875 -5.71875 L 5.171875 0 L 1.03125 0 L 1.03125 -12.59375 L 4.515625 -12.59375 L 9.3125 -6.875 L 9.3125 -12.59375 Z M 13.453125 -12.59375 "/></g></g></g><g fill="#efebec" fill-opacity="1"><g transform="translate(169.280856, 223.616309)"><g><path d="M 11.5 -3.203125 L 11.5 0 L 1.03125 0 L 1.03125 -12.59375 L 11.265625 -12.59375 L 11.265625 -9.390625 L 5.203125 -9.390625 L 5.203125 -7.921875 L 10.53125 -7.921875 L 10.53125 -4.859375 L 5.203125 -4.859375 L 5.203125 -3.203125 Z M 11.5 -3.203125 "/></g></g></g><g fill="#efebec" fill-opacity="1"><g transform="translate(182.240814, 223.616309)"><g><path d="M 5.71875 0.28125 C 4.675781 0.28125 3.660156 0.164062 2.671875 -0.0625 C 1.679688 -0.289062 0.867188 -0.609375 0.234375 -1.015625 L 1.609375 -4.109375 C 2.203125 -3.753906 2.867188 -3.472656 3.609375 -3.265625 C 4.359375 -3.054688 5.078125 -2.953125 5.765625 -2.953125 C 6.347656 -2.953125 6.765625 -3.007812 7.015625 -3.125 C 7.265625 -3.238281 7.390625 -3.410156 7.390625 -3.640625 C 7.390625 -3.898438 7.222656 -4.09375 6.890625 -4.21875 C 6.566406 -4.351562 6.03125 -4.5 5.28125 -4.65625 C 4.300781 -4.863281 3.488281 -5.082031 2.84375 -5.3125 C 2.195312 -5.550781 1.632812 -5.9375 1.15625 -6.46875 C 0.675781 -7 0.4375 -7.722656 0.4375 -8.640625 C 0.4375 -9.429688 0.65625 -10.148438 1.09375 -10.796875 C 1.539062 -11.441406 2.203125 -11.953125 3.078125 -12.328125 C 3.960938 -12.703125 5.035156 -12.890625 6.296875 -12.890625 C 7.160156 -12.890625 8.007812 -12.796875 8.84375 -12.609375 C 9.675781 -12.421875 10.410156 -12.148438 11.046875 -11.796875 L 9.78125 -8.71875 C 8.539062 -9.332031 7.367188 -9.640625 6.265625 -9.640625 C 5.171875 -9.640625 4.625 -9.378906 4.625 -8.859375 C 4.625 -8.609375 4.785156 -8.414062 5.109375 -8.28125 C 5.429688 -8.15625 5.96875 -8.023438 6.71875 -7.890625 C 7.675781 -7.703125 8.484375 -7.488281 9.140625 -7.25 C 9.804688 -7.019531 10.378906 -6.640625 10.859375 -6.109375 C 11.347656 -5.585938 11.59375 -4.867188 11.59375 -3.953125 C 11.59375 -3.160156 11.367188 -2.441406 10.921875 -1.796875 C 10.484375 -1.160156 9.820312 -0.65625 8.9375 -0.28125 C 8.050781 0.09375 6.976562 0.28125 5.71875 0.28125 Z M 5.71875 0.28125 "/></g></g></g><g fill="#efebec" fill-opacity="1"><g transform="translate(194.912782, 223.616309)"><g><path d="M 13.453125 -12.59375 L 13.453125 0 L 9.203125 0 L 9.203125 -4.640625 L 5.28125 -4.640625 L 5.28125 0 L 1.03125 0 L 1.03125 -12.59375 L 5.28125 -12.59375 L 5.28125 -8.140625 L 9.203125 -8.140625 L 9.203125 -12.59375 Z M 13.453125 -12.59375 "/></g></g></g><g fill="#efebec" fill-opacity="1"><g transform="translate(210.230743, 223.616309)"><g><path d="M 7.625 0.28125 C 6.269531 0.28125 5.050781 0 3.96875 -0.5625 C 2.894531 -1.125 2.050781 -1.90625 1.4375 -2.90625 C 0.820312 -3.90625 0.515625 -5.035156 0.515625 -6.296875 C 0.515625 -7.554688 0.820312 -8.6875 1.4375 -9.6875 C 2.050781 -10.695312 2.894531 -11.484375 3.96875 -12.046875 C 5.050781 -12.609375 6.269531 -12.890625 7.625 -12.890625 C 8.988281 -12.890625 10.207031 -12.609375 11.28125 -12.046875 C 12.363281 -11.484375 13.207031 -10.695312 13.8125 -9.6875 C 14.425781 -8.6875 14.734375 -7.554688 14.734375 -6.296875 C 14.734375 -5.035156 14.425781 -3.90625 13.8125 -2.90625 C 13.207031 -1.90625 12.363281 -1.125 11.28125 -0.5625 C 10.207031 0 8.988281 0.28125 7.625 0.28125 Z M 7.625 -3.15625 C 8.15625 -3.15625 8.632812 -3.28125 9.0625 -3.53125 C 9.488281 -3.789062 9.828125 -4.15625 10.078125 -4.625 C 10.328125 -5.101562 10.453125 -5.660156 10.453125 -6.296875 C 10.453125 -6.929688 10.328125 -7.484375 10.078125 -7.953125 C 9.828125 -8.429688 9.488281 -8.800781 9.0625 -9.0625 C 8.632812 -9.320312 8.15625 -9.453125 7.625 -9.453125 C 7.101562 -9.453125 6.628906 -9.320312 6.203125 -9.0625 C 5.773438 -8.800781 5.4375 -8.429688 5.1875 -7.953125 C 4.9375 -7.484375 4.8125 -6.929688 4.8125 -6.296875 C 4.8125 -5.660156 4.9375 -5.101562 5.1875 -4.625 C 5.4375 -4.15625 5.773438 -3.789062 6.203125 -3.53125 C 6.628906 -3.28125 7.101562 -3.15625 7.625 -3.15625 Z M 7.625 -3.15625 "/></g></g></g><g fill="#efebec" fill-opacity="1"><g transform="translate(226.340705, 223.616309)"><g><path d="M 7.09375 -12.59375 C 8.257812 -12.59375 9.273438 -12.398438 10.140625 -12.015625 C 11.003906 -11.640625 11.664062 -11.085938 12.125 -10.359375 C 12.59375 -9.640625 12.828125 -8.800781 12.828125 -7.84375 C 12.828125 -6.882812 12.59375 -6.046875 12.125 -5.328125 C 11.664062 -4.609375 11.003906 -4.054688 10.140625 -3.671875 C 9.273438 -3.285156 8.257812 -3.09375 7.09375 -3.09375 L 5.28125 -3.09375 L 5.28125 0 L 1.03125 0 L 1.03125 -12.59375 Z M 6.828125 -6.375 C 7.398438 -6.375 7.828125 -6.5 8.109375 -6.75 C 8.398438 -7.007812 8.546875 -7.375 8.546875 -7.84375 C 8.546875 -8.3125 8.398438 -8.675781 8.109375 -8.9375 C 7.828125 -9.195312 7.398438 -9.328125 6.828125 -9.328125 L 5.28125 -9.328125 L 5.28125 -6.375 Z M 6.828125 -6.375 "/></g></g></g><g fill="#efebec" fill-opacity="1"><g transform="translate(240.560675, 223.616309)"><g><path d="M 7.625 0.28125 C 6.269531 0.28125 5.050781 0 3.96875 -0.5625 C 2.894531 -1.125 2.050781 -1.90625 1.4375 -2.90625 C 0.820312 -3.90625 0.515625 -5.035156 0.515625 -6.296875 C 0.515625 -7.554688 0.820312 -8.6875 1.4375 -9.6875 C 2.050781 -10.695312 2.894531 -11.484375 3.96875 -12.046875 C 5.050781 -12.609375 6.269531 -12.890625 7.625 -12.890625 C 8.988281 -12.890625 10.207031 -12.609375 11.28125 -12.046875 C 12.363281 -11.484375 13.207031 -10.695312 13.8125 -9.6875 C 14.425781 -8.6875 14.734375 -7.554688 14.734375 -6.296875 C 14.734375 -5.035156 14.425781 -3.90625 13.8125 -2.90625 C 13.207031 -1.90625 12.363281 -1.125 11.28125 -0.5625 C 10.207031 0 8.988281 0.28125 7.625 0.28125 Z M 7.625 -3.15625 C 8.15625 -3.15625 8.632812 -3.28125 9.0625 -3.53125 C 9.488281 -3.789062 9.828125 -4.15625 10.078125 -4.625 C 10.328125 -5.101562 10.453125 -5.660156 10.453125 -6.296875 C 10.453125 -6.929688 10.328125 -7.484375 10.078125 -7.953125 C 9.828125 -8.429688 9.488281 -8.800781 9.0625 -9.0625 C 8.632812 -9.320312 8.15625 -9.453125 7.625 -9.453125 C 7.101562 -9.453125 6.628906 -9.320312 6.203125 -9.0625 C 5.773438 -8.800781 5.4375 -8.429688 5.1875 -7.953125 C 4.9375 -7.484375 4.8125 -6.929688 4.8125 -6.296875 C 4.8125 -5.660156 4.9375 -5.101562 5.1875 -4.625 C 5.4375 -4.15625 5.773438 -3.789062 6.203125 -3.53125 C 6.628906 -3.28125 7.101562 -3.15625 7.625 -3.15625 Z M 7.625 -3.15625 "/></g></g></g><g fill="#efebec" fill-opacity="1"><g transform="translate(256.670636, 223.616309)"><g><path d="M 14.484375 -12.59375 L 9.15625 0 L 4.984375 0 L -0.34375 -12.59375 L 4.234375 -12.59375 L 7.234375 -5.234375 L 10.3125 -12.59375 Z M 14.484375 -12.59375 "/></g></g></g></svg>